<?xml version="1.0" encoding="utf-8"?>
<!-- Generator: Adobe Illustrator 26.0.1, SVG Export Plug-In . SVG Version: 6.00 Build 0)  -->
<svg version="1.1" id="Layer_1" xmlns:serif="http://www.serif.com/"
	 xmlns="http://www.w3.org/2000/svg" xmlns:xlink="http://www.w3.org/1999/xlink" x="0px" y="0px" viewBox="0 0 456 456"
	 style="enable-background:new 0 0 456 456;" xml:space="preserve">
<style type="text/css">
	.st0{fill:#FFFFFF;}
	.st1{font-family:'FranklinGothic-Medium';}
	.st2{font-size:193.8212px;}
</style>
<text transform="matrix(1 0 0 1 33.185 438.5642)" class="st0 st1 st2">WOL</text>
<g>
	<path class="st0" d="M228.2,8.5c40.3,0,80.6,0,120.9,0c9.6,0,16.2,4.4,18.7,12.6c0.6,2.1,0.8,4.3,0.8,6.5c0,57.2,0,114.4,0,171.6
		c0,12.1-7.2,19.1-19.5,19.1c-34.3,0-68.5,0-102.8,0c-4.1,0-4.1,0-4.1,4c0,2.8,0.2,5.6-0.1,8.4c-0.3,3.1,1.1,3.6,3.7,3.6
		c6-0.1,12.1-0.2,18.1,0.1c6.8,0.3,12,5,13.2,11.4c1.6,8.2-1.2,15.2-7.6,18.1c-2.3,1-5,1.6-7.5,1.6c-22.7,0.1-45.4,0.1-68.1,0
		c-9.7,0-15.5-6.1-15.4-15.8c0-9.5,5.9-15.3,15.4-15.5c5.7-0.1,11.5-0.1,17.2,0c2,0,2.8-0.6,2.7-2.7c-0.1-3.4-0.2-6.9,0-10.3
		c0.1-2.3-0.6-3.1-3-3.1c-5.2,0.2-10.4,0-15.6,0c-29.5,0-59,0-88.4,0c-9.8,0-16.3-4.4-18.7-13c-0.6-2-0.7-4.1-0.7-6.2
		c0-57.1,0-114.2,0-171.3c0-12.2,7.3-19.3,19.6-19.3C147.3,8.5,187.8,8.5,228.2,8.5z M223,243.7c-1.6,0-2.7,0-3.8,0
		c-8.4,0-16.9,0-25.3,0c-4.4,0-6,1.7-6,6.1c0,4.8,1.6,6.4,6.7,6.4c22.3,0,44.6,0,66.9,0c0.9,0,2,0.2,2.8-0.2
		c1.3-0.7,2.9-1.6,3.5-2.8c2.4-5.3-0.4-9.4-6.2-9.5c-8.3,0-16.7,0-25,0c-1.1,0-2.2-0.1-3.5-0.2c0-10.5,0.2-20.5-0.1-30.6
		c-0.1-3.3,1-3.9,4.1-3.9c37.2,0.1,74.4,0.1,111.6,0.1c8.2,0,10.9-2.7,10.9-10.8c0-56.4,0-112.7,0-169.1c0-8.4-2.6-11.1-11-11.1
		c-80.3,0-160.6,0-240.9,0c-8.3,0-11,2.7-11,11.1c0,56.4,0,112.7,0,169.1c0,8.1,2.8,10.8,10.9,10.8c36.9,0,73.7,0,110.6,0
		c0.9,0,2-0.2,2.8,0.1c0.8,0.3,2,1.2,2,1.9C223,221.6,223,232.4,223,243.7z"/>
	<path class="st0" d="M228,200.4c-35.4,0-70.8,0-106.3,0c-3.6,0-7.4-0.2-9.6-3.4c-1.4-2.1-2.7-4.9-2.7-7.4
		c-0.2-50.1-0.1-100.2-0.1-150.3c0-6.5,4-10.5,10.5-10.8c0.7,0,1.5,0,2.2,0c70.6,0,141.3,0,211.9,0c3.5,0,6.9,0.3,9.6,2.9
		c2.4,2.4,3.1,5.5,3.1,8.9c-0.1,28,0,56.1,0,84.1c0,21.4,0,42.7,0,64.1c0,8.3-3.7,12-12,12C299.1,200.4,263.5,200.4,228,200.4z
		 M227.9,191c35.1,0,70.2,0,105.3,0c4.2,0,4.2,0,4.2-4.3c0-48.3,0-96.5,0-144.8c0-4.1,0-4.1-4.1-4.1c-70.2,0-140.5,0-210.7,0
		c-4.1,0-4.1,0-4.1,4.1c0,48.3,0,96.5,0,144.8c0,4.3,0,4.3,4.2,4.3C157.8,191,192.9,191,227.9,191z"/>
</g>
</svg>
