<?xml version="1.0" encoding="utf-8"?>
<!-- Generator: Adobe Illustrator 26.0.1, SVG Export Plug-In . SVG Version: 6.00 Build 0)  -->
<svg version="1.1" id="Layer_1" xmlns="http://www.w3.org/2000/svg" xmlns:xlink="http://www.w3.org/1999/xlink" x="0px" y="0px"
	 viewBox="0 0 419 519" style="enable-background:new 0 0 419 519;" xml:space="preserve">
<style type="text/css">
	.st0{fill-rule:evenodd;clip-rule:evenodd;fill:#007400;}
</style>
<path id="checkmark" class="st0" d="M209.6,433.6C113.4,433.8,35.3,356,35.2,259.8C35,163.6,112.9,85.5,209.1,85.4
	c16.5,0,32.9,2.3,48.7,6.9l-15.7,25.9c-78.1-18-156,30.8-173.9,108.9c-18,78.1,30.8,156,108.9,173.9c78.1,18,156-30.8,173.9-108.9
	c2.5-10.7,3.7-21.6,3.7-32.6c0-16.6-2.9-33.1-8.6-48.7l18.4-30.6c43.8,85.5,10,190.4-75.5,234.3
	C264.5,427.1,237.3,433.7,209.6,433.6z M223,308.4c-0.7,1.9-1.7,3.7-3.2,5.2c-2.7,2.8-6.6,4.1-10.4,3.8c-6.2,0.4-11.9-3.5-13.6-9.5
	l-55.4-55.4c-4.8-5.4-4.3-13.7,1.1-18.4c4.9-4.4,12.4-4.4,17.3,0l47.2,47.2l107.2-159.3c3.8-7,12.7-9.6,19.7-5.8
	c0.1,0.1,0.2,0.1,0.3,0.2c7,4.3,9.3,13.4,5.2,20.6L223,308.4z"/>
</svg>
