<?xml version="1.0" encoding="utf-8"?>
<!-- Generator: Adobe Illustrator 26.0.1, SVG Export Plug-In . SVG Version: 6.00 Build 0)  -->
<svg version="1.1" id="Layer_1" xmlns="http://www.w3.org/2000/svg" xmlns:xlink="http://www.w3.org/1999/xlink" x="0px" y="0px"
	 viewBox="0 0 419 519" style="enable-background:new 0 0 419 519;" xml:space="preserve">
<style type="text/css">
	.st0{fill:#33346E;}
	.st1{fill:#78BD41;}
</style>
<path class="st0" d="M383.7,259.5c0-96.2-78-174.2-174.1-174.2c-96.2,0-174.2,78-174.2,174.2s78,174.1,174.2,174.1
	C305.7,433.6,383.7,355.7,383.7,259.5z"/>
<g>
	<path class="st1" d="M297.4,194.1c-13.7-18.4-33.3-32.3-55-39.2c-0.5-0.2-1.1-0.1-1.6,0.3c-0.5,0.3-0.7,0.9-0.7,1.4l0.1,28.3
		c0,0.8,0.4,1.4,0.9,1.8c22.3,13.7,46.7,33,46.7,72.5c0,43.2-35.1,78.3-78.3,78.3s-78.3-35.1-78.3-78.3c0-41.2,24.7-59.4,47.5-72.9
		c0.6-0.3,1-1,1-1.8l0.1-28c0-0.6-0.3-1.1-0.7-1.4c-0.4-0.3-1-0.4-1.6-0.3c-22,6.7-41.7,20.6-55.6,39.1c-14.4,19.1-22,41.8-22,65.8
		c0,60.4,49.2,109.6,109.6,109.6s109.6-49.2,109.6-109.6C319.1,235.7,311.6,213.1,297.4,194.1z"/>
	<path class="st1" d="M212.1,132.4h-5.3c-8.3,0-15,6.7-15,15v127.2c0,8.3,6.7,15,15,15h5.3c8.3,0,15-6.7,15-15V147.4
		C227.2,139.1,220.4,132.4,212.1,132.4z"/>
</g>
</svg>
