<?xml version="1.0" encoding="utf-8"?>
<!-- Generator: Adobe Illustrator 26.0.1, SVG Export Plug-In . SVG Version: 6.00 Build 0)  -->
<svg version="1.1" id="Layer_1" xmlns:serif="http://www.serif.com/"
	 xmlns="http://www.w3.org/2000/svg" xmlns:xlink="http://www.w3.org/1999/xlink" x="0px" y="0px" viewBox="0 0 456 456"
	 style="enable-background:new 0 0 456 456;" xml:space="preserve">
<style type="text/css">
	.st0{fill:#FFFFFF;}
</style>
<g>
	<path class="st0" d="M228.1,131.7c30.2,0,60.4,0,90.7,0c7.2,0,12.1,3.3,14,9.4c0.5,1.6,0.6,3.2,0.6,4.9c0,42.9,0,85.8,0,128.7
		c0,9.1-5.4,14.3-14.6,14.3c-25.7,0-51.4,0-77.1,0c-3.1,0-3.1,0-3.1,3c0,2.1,0.1,4.2-0.1,6.3c-0.2,2.3,0.8,2.7,2.8,2.7
		c4.5-0.1,9.1-0.1,13.6,0.1c5.1,0.2,9,3.7,9.9,8.5c1.2,6.1-0.9,11.4-5.7,13.6c-1.7,0.7-3.7,1.2-5.6,1.2c-17,0.1-34,0.1-51.1,0
		c-7.3,0-11.6-4.6-11.5-11.8c0-7.1,4.4-11.5,11.5-11.6c4.3-0.1,8.6-0.1,12.9,0c1.5,0,2.1-0.4,2-2c-0.1-2.5-0.1-5.2,0-7.7
		c0.1-1.7-0.4-2.3-2.2-2.3c-3.9,0.1-7.8,0-11.7,0c-22.1,0-44.2,0-66.3,0c-7.3,0-12.2-3.3-14-9.7c-0.4-1.5-0.5-3.1-0.5-4.6
		c0-42.8,0-85.6,0-128.5c0-9.1,5.5-14.5,14.7-14.5C167.5,131.7,197.9,131.7,228.1,131.7z M224.3,308.1c-1.2,0-2,0-2.8,0
		c-6.3,0-12.7,0-19,0c-3.3,0-4.5,1.3-4.5,4.6c0,3.6,1.2,4.8,5,4.8c16.7,0,33.4,0,50.2,0c0.7,0,1.5,0.2,2.1-0.1
		c1-0.5,2.2-1.2,2.6-2.1c1.8-4-0.3-7-4.6-7.1c-6.2,0-12.5,0-18.7,0c-0.8,0-1.6-0.1-2.6-0.1c0-7.9,0.1-15.4-0.1-22.9
		c-0.1-2.5,0.7-2.9,3.1-2.9c27.9,0.1,55.8,0.1,83.7,0.1c6.1,0,8.2-2,8.2-8.1c0-42.3,0-84.5,0-126.8c0-6.3-1.9-8.3-8.2-8.3
		c-60.2,0-120.4,0-180.7,0c-6.2,0-8.2,2-8.2,8.3c0,42.3,0,84.5,0,126.8c0,6.1,2.1,8.1,8.2,8.1c27.7,0,55.3,0,82.9,0
		c0.7,0,1.5-0.1,2.1,0.1c0.6,0.2,1.5,0.9,1.5,1.4C224.3,291.5,224.3,299.6,224.3,308.1z"/>
	<path class="st0" d="M228,275.6c-26.5,0-53.1,0-79.7,0c-2.7,0-5.5-0.1-7.2-2.5c-1-1.6-2-3.7-2-5.5c-0.2-37.6-0.1-75.1-0.1-112.7
		c0-4.9,3-7.9,7.9-8.1c0.5,0,1.1,0,1.6,0c52.9,0,106,0,158.9,0c2.6,0,5.2,0.2,7.2,2.2c1.8,1.8,2.3,4.1,2.3,6.7
		c-0.1,21,0,42.1,0,63.1c0,16,0,32,0,48.1c0,6.2-2.8,9-9,9C281.3,275.6,254.6,275.6,228,275.6z M227.9,268.5c26.3,0,52.6,0,79,0
		c3.1,0,3.1,0,3.1-3.2c0-36.2,0-72.4,0-108.6c0-3.1,0-3.1-3.1-3.1c-52.6,0-105.4,0-158,0c-3.1,0-3.1,0-3.1,3.1
		c0,36.2,0,72.4,0,108.6c0,3.2,0,3.2,3.1,3.2C175.4,268.5,201.7,268.5,227.9,268.5z"/>
</g>
</svg>
